# This file uses centimeters as units for non-parametric coordinates.

mtllib Spike_Trap_Base.mtl
g default
v 750.039978 -2.498555 418.799225
v 869.774109 -2.498555 418.799225
v 750.039978 2.498555 418.799225
v 869.774109 2.498555 418.799225
v 750.039978 2.498555 385.894806
v 869.774109 2.498555 385.894806
v 750.039978 -2.498555 385.894806
v 869.774109 -2.498555 385.894806
v 750.039978 2.498555 398.797516
v 869.774109 2.498555 398.797516
v 869.774109 -2.498555 398.797516
v 750.039978 -2.498555 398.797516
v 750.039978 2.498555 405.898468
v 869.774109 2.498555 405.898468
v 869.774109 -2.498555 405.898468
v 750.039978 -2.498555 405.898468
v 860.416321 -2.498555 418.799225
v 860.416382 -2.498555 405.898468
v 860.416382 -2.498555 398.797516
v 860.416321 -2.498555 385.894806
v 860.416321 2.498555 385.894806
v 860.416321 2.498555 398.797516
v 860.416321 2.498555 405.898468
v 860.416321 2.498555 418.799225
v 762.104553 -2.498555 418.799225
v 762.104553 -2.498555 405.898468
v 762.104553 -2.498555 398.797516
v 762.104553 -2.498555 385.894806
v 762.104553 2.498555 385.894806
v 762.104553 2.498555 398.797516
v 762.104553 2.498555 405.898468
v 762.104553 2.498555 418.799225
v 762.104553 -1.877489 398.797516
v 762.104553 -1.877489 405.898468
v 860.416321 -1.877489 405.898468
v 860.416321 -1.877489 398.797516
vt 0.375000 0.000000
vt 0.625000 0.000000
vt 0.375000 0.250000
vt 0.625000 0.250000
vt 0.375000 0.500000
vt 0.625000 0.500000
vt 0.375000 0.750000
vt 0.625000 0.750000
vt 0.375000 1.000000
vt 0.625000 1.000000
vt 0.875000 0.000000
vt 0.875000 0.250000
vt 0.125000 0.000000
vt 0.125000 0.250000
vt 0.201770 0.250000
vt 0.375000 0.423230
vt 0.625000 0.423230
vt 0.798230 0.250000
vt 0.625000 0.826770
vt 0.798230 0.000000
vt 0.201770 0.000000
vt 0.375000 0.826770
vt 0.255722 0.250000
vt 0.375000 0.369278
vt 0.625000 0.369278
vt 0.744278 0.250000
vt 0.625000 0.880722
vt 0.744278 0.000000
vt 0.255722 0.000000
vt 0.375000 0.880722
vt 0.605461 0.000000
vt 0.605461 1.000000
vt 0.605461 0.880722
vt 0.605461 0.826770
vt 0.605461 0.750000
vt 0.605461 0.500000
vt 0.605461 0.423230
vt 0.605461 0.369278
vt 0.605461 0.250000
vt 0.400190 0.000000
vt 0.400190 1.000000
vt 0.400190 0.880722
vt 0.400190 0.826770
vt 0.400190 0.750000
vt 0.400190 0.500000
vt 0.400190 0.423230
vt 0.400190 0.369278
vt 0.400190 0.250000
vt 0.400190 0.423230
vt 0.400190 0.369278
vt 0.605461 0.369278
vt 0.605461 0.423230
vn 0.000000 0.000000 1.000000
vn 0.000000 0.000000 1.000000
vn 0.000000 0.000000 1.000000
vn 0.000000 0.000000 1.000000
vn 0.000000 1.000000 0.000000
vn 0.000000 1.000000 0.000000
vn 0.000000 1.000000 0.000000
vn 0.000000 1.000000 0.000000
vn 0.000000 0.000000 -1.000000
vn 0.000000 0.000000 -1.000000
vn 0.000000 0.000000 -1.000000
vn 0.000000 0.000000 -1.000000
vn 0.000000 -1.000000 0.000000
vn 0.000000 -1.000000 0.000000
vn 0.000000 -1.000000 0.000000
vn 0.000000 -1.000000 0.000000
vn 1.000000 0.000000 0.000000
vn 1.000000 0.000000 0.000000
vn 1.000000 0.000000 0.000000
vn 1.000000 0.000000 0.000000
vn -1.000000 0.000000 0.000000
vn -1.000000 0.000000 0.000000
vn -1.000000 0.000000 0.000000
vn -1.000000 0.000000 0.000000
vn 0.000000 1.000000 0.000000
vn 0.000000 1.000000 0.000000
vn 1.000000 0.000000 0.000000
vn 1.000000 0.000000 0.000000
vn 0.000000 -1.000000 0.000000
vn 0.000000 -1.000000 0.000000
vn -1.000000 0.000000 0.000000
vn -1.000000 0.000000 0.000000
vn 0.000000 1.000000 0.000000
vn 0.000000 1.000000 0.000000
vn 1.000000 0.000000 0.000000
vn 1.000000 0.000000 0.000000
vn 0.000000 -1.000000 0.000000
vn 0.000000 -1.000000 0.000000
vn -1.000000 0.000000 0.000000
vn -1.000000 0.000000 0.000000
vn 0.000000 -1.000000 0.000000
vn 0.000000 -1.000000 0.000000
vn 0.000000 -1.000000 0.000000
vn 0.000000 -1.000000 0.000000
vn 0.000000 0.000000 -1.000000
vn 0.000000 0.000000 -1.000000
vn 0.000000 1.000000 0.000000
vn 0.000000 1.000000 0.000000
vn 0.000000 1.000000 0.000000
vn 0.000000 1.000000 0.000000
vn 0.000000 1.000000 0.000000
vn 0.000000 1.000000 0.000000
vn 0.000000 1.000000 0.000000
vn 0.000000 1.000000 0.000000
vn 0.000000 0.000000 1.000000
vn 0.000000 0.000000 1.000000
vn 0.000000 -1.000000 0.000000
vn 0.000000 -1.000000 0.000000
vn 0.000000 -1.000000 0.000000
vn 0.000000 -1.000000 0.000000
vn 0.000000 0.000000 -1.000000
vn 0.000000 0.000000 -1.000000
vn 0.000000 1.000000 0.000000
vn 0.000000 1.000000 0.000000
vn 0.000000 1.000000 0.000000
vn 0.000000 1.000000 0.000000
vn 0.000000 0.000000 1.000000
vn 0.000000 0.000000 1.000000
vn 1.000000 0.000000 0.000000
vn 1.000000 0.000000 0.000000
vn 1.000000 0.000000 0.000000
vn 1.000000 0.000000 0.000000
vn 0.000000 0.000000 -1.000000
vn 0.000000 0.000000 -1.000000
vn 0.000000 0.000000 -1.000000
vn 0.000000 0.000000 -1.000000
vn -1.000000 0.000000 0.000000
vn -1.000000 0.000000 0.000000
vn -1.000000 0.000000 0.000000
vn -1.000000 0.000000 0.000000
vn 0.000000 0.000000 1.000000
vn 0.000000 0.000000 1.000000
vn 0.000000 0.000000 1.000000
vn 0.000000 0.000000 1.000000
s 1
g pCube50
usemtl initialShadingGroup
f 24/39/1 17/31/2 2/2/3 4/4/4
s 2
f 21/36/5 22/37/6 10/17/7 6/6/8
s 3
f 20/35/9 21/36/10 6/6/11 8/8/12
s 4
f 19/34/13 20/35/14 8/8/15 11/19/16
s 5
f 10/18/17 11/20/18 8/11/19 6/12/20
s 6
f 7/13/21 12/21/22 9/15/23 5/14/24
s 2
f 22/37/6 23/38/25 14/25/26 10/17/7
s 5
f 14/26/27 15/28/28 11/20/18 10/18/17
s 4
f 18/33/29 19/34/13 11/19/16 15/27/30
s 6
f 9/15/23 12/21/22 16/29/31 13/23/32
s 2
f 23/38/25 24/39/33 4/4/34 14/25/26
s 5
f 2/2/35 15/28/28 14/26/27 4/4/36
s 4
f 17/32/37 18/33/29 15/27/30 2/10/38
s 6
f 13/23/32 16/29/31 1/1/39 3/3/40
s 4
f 25/41/41 26/42/42 18/33/29 17/32/37
f 26/42/42 27/43/43 19/34/13 18/33/29
f 27/43/43 28/44/44 20/35/14 19/34/13
s 3
f 28/44/45 29/45/46 21/36/10 20/35/9
s 2
f 29/45/47 30/46/48 22/37/6 21/36/5
s off
f 33/49/49 34/50/50 35/51/51 36/52/52
s 2
f 31/47/53 32/48/54 24/39/33 23/38/25
s 1
f 32/48/55 25/40/56 17/31/2 24/39/1
s 4
f 16/30/57 26/42/42 25/41/41 1/9/58
f 12/22/59 27/43/43 26/42/42 16/30/57
f 7/7/60 28/44/44 27/43/43 12/22/59
s 3
f 5/5/61 29/45/46 28/44/45 7/7/62
s 2
f 9/16/63 30/46/48 29/45/47 5/5/64
f 13/24/65 31/47/53 30/46/48 9/16/63
f 3/3/66 32/48/54 31/47/53 13/24/65
s 1
f 1/1/67 25/40/56 32/48/55 3/3/68
s off
f 30/46/69 31/47/70 34/50/71 33/49/72
f 31/47/73 23/38/74 35/51/75 34/50/76
f 23/38/77 22/37/78 36/52/79 35/51/80
f 22/37/81 30/46/82 33/49/83 36/52/84
